<svg class="svg-icon" style="width: 1em; height: 1em;vertical-align: middle;fill: currentColor;overflow: hidden;" viewBox="0 0 1024 1024" version="1.1" xmlns="http://www.w3.org/2000/svg"><path d="M142.933333 928c-17.066667-14.933333-19.2-42.666667-4.266666-59.733333l492.8-554.666667c-8.533333 0-19.2 2.133333-27.733334 2.133333h-10.666666c-44.8 0-85.333333-8.533333-125.866667-23.466666-6.4 87.466667-81.066667 157.866667-170.666667 157.866666-93.866667 0-170.666667-76.8-170.666666-170.666666s76.8-170.666667 170.666666-170.666667c46.933333 0 89.6 19.2 121.6 49.066667 51.2 46.933333 115.2 72.533333 183.466667 70.4 68.266667-2.133333 132.266667-32 179.2-83.2l40.533333-46.933334c14.933333-17.066667 42.666667-19.2 59.733334-4.266666 6.4 4.266667 8.533333 10.666667 10.666666 17.066666 4.266667 8.533333 4.266667 19.2 0 27.733334v2.133333c0 2.133333-2.133333 4.266667-2.133333 6.4-2.133333 2.133333-2.133333 4.266667-4.266667 6.4l-12.8 14.933333L202.666667 923.733333c-8.533333 10.666667-19.2 14.933333-32 14.933334-10.666667 0-19.2-4.266667-27.733334-10.666667zM298.666667 362.666667c46.933333 0 85.333333-38.4 85.333333-85.333334 0-23.466667-8.533333-44.8-25.6-59.733333C343.466667 200.533333 322.133333 192 298.666667 192c-46.933333 0-85.333333 38.4-85.333334 85.333333s38.4 85.333333 85.333334 85.333334zM725.333333 917.333333c-93.866667 0-170.666667-76.8-170.666666-170.666666s76.8-170.666667 170.666666-170.666667 170.666667 76.8 170.666667 170.666667-76.8 170.666667-170.666667 170.666666z m0-256c-46.933333 0-85.333333 38.4-85.333333 85.333334s38.4 85.333333 85.333333 85.333333 85.333333-38.4 85.333334-85.333333-38.4-85.333333-85.333334-85.333334z" fill="#2F3CF4" /></svg>